<svg xmlns="http://www.w3.org/2000/svg" width="50.001" height="49.999" viewBox="0 0 50.001 49.999">
  <path id="arrow_left" data-name="arrow left" d="M10362,7793a25,25,0,1,1,25,25A25,25,0,0,1,10362,7793Zm16.245-20.732a22.555,22.555,0,1,0,8.757-1.769A22.379,22.379,0,0,0,10378.244,7772.268Zm6.023,26.387-4.921-4.829a1.173,1.173,0,0,1-.353-.826,1.1,1.1,0,0,1,.353-.823l4.937-4.842a1.209,1.209,0,0,1,1.667,0,1.154,1.154,0,0,1,0,1.636l-2.913,2.875h10.778a1.157,1.157,0,1,1,0,2.313h-10.778l2.913,2.859a1.157,1.157,0,0,1,0,1.638,1.2,1.2,0,0,1-1.683,0Z" transform="translate(-10361.999 -7768.001)" fill="#3285e4"/>
</svg>
