<svg xmlns="http://www.w3.org/2000/svg" width="26" height="26" viewBox="0 0 26 26">
  <path id="close_button" data-name="close button" d="M22.285,3.765a13.025,13.025,0,1,0-18.42,18.42,13.025,13.025,0,0,0,18.42-18.42ZM15.113,16.806l-2.119-2.119-2.119,2.119a1.153,1.153,0,0,1-1.63-1.63l2.119-2.119L9.244,10.937a1.153,1.153,0,1,1,1.63-1.63l2.119,2.119,2.119-2.119a1.153,1.153,0,0,1,1.63,1.63l-2.119,2.119,2.119,2.119a1.153,1.153,0,0,1-1.63,1.63Z" transform="translate(-0.075 0.025)" fill="#fff"/>
</svg>
