<svg xmlns="http://www.w3.org/2000/svg" width="40" height="40" viewBox="0 0 40 40">
  <path id="Logicloud_logo_small" data-name="Logicloud logo small" d="M-4161-28a9.939,9.939,0,0,1-3.893-.786,9.965,9.965,0,0,1-3.18-2.143,9.944,9.944,0,0,1-2.142-3.179A9.92,9.92,0,0,1-4171-38V-58a9.92,9.92,0,0,1,.787-3.892,9.949,9.949,0,0,1,2.142-3.179,9.971,9.971,0,0,1,3.18-2.143A9.939,9.939,0,0,1-4161-68h20a9.936,9.936,0,0,1,3.893.786,9.965,9.965,0,0,1,3.178,2.143,9.978,9.978,0,0,1,2.144,3.179A9.944,9.944,0,0,1-4131-58v20a9.944,9.944,0,0,1-.784,3.892,9.974,9.974,0,0,1-2.144,3.179,9.958,9.958,0,0,1-3.178,2.143A9.935,9.935,0,0,1-4141-28Zm2.307-19.029a8.916,8.916,0,0,0,.731,3.668,5.907,5.907,0,0,0,2.057,2.535,5.207,5.207,0,0,0,2.981.9h.077a3.107,3.107,0,0,0,1.885-.538,1.65,1.65,0,0,0,.729-1.383,2.007,2.007,0,0,0-.479-1.383,1.609,1.609,0,0,0-1.251-.538h-.962a1.592,1.592,0,0,1-1.384-.922,4.62,4.62,0,0,1-.538-2.343v-9.048h-3.847Zm10.771-6.548a2.5,2.5,0,0,0,2.5,2.5,2.5,2.5,0,0,0,2.5-2.5,2.5,2.5,0,0,0-2.5-2.5A2.5,2.5,0,0,0-4147.922-53.577Z" transform="translate(4171 68)" fill="#2d2d2d"/>
</svg>
